<svg xmlns="http://www.w3.org/2000/svg" viewBox="0 0 800 500" style="background-color: #121212; font-family: monospace;">
    <g stroke="#2a2a2a" stroke-width="1.5">
        <line x1="0" y1="100" x2="800" y2="100" />
        <line x1="0" y1="200" x2="800" y2="200" />
        <line x1="0" y1="300" x2="800" y2="300" />
        <line x1="0" y1="400" x2="800" y2="400" />
        <line x1="150" y1="0" x2="150" y2="500" />
        <line x1="300" y1="0" x2="300" y2="500" />
        <line x1="450" y1="0" x2="450" y2="500" />
        <line x1="600" y1="0" x2="600" y2="500" />
    </g>

    <path d="M 0 400 Q 200 350 400 450 T 800 300" fill="none" stroke="#1f1f1f" stroke-width="2" />
    <path d="M 0 150 Q 250 50 500 200 T 800 100" fill="none" stroke="#1f1f1f" stroke-width="2" />

    <g fill="#4a4a4a">
        <circle cx="225" cy="300" r="10" opacity="0">
            <animate attributeName="cx" values="225; 600" dur="4s" repeatCount="indefinite" />
            <animate attributeName="cy" values="300; 150" dur="4s" repeatCount="indefinite" />
            <animate attributeName="r" values="5; 45" dur="4s" repeatCount="indefinite" />
            <animate attributeName="opacity" values="0; 0.6; 0" dur="4s" repeatCount="indefinite" />
        </circle>
        <circle cx="225" cy="300" r="10" opacity="0">
            <animate attributeName="cx" values="225; 600" dur="4s" begin="1.33s" repeatCount="indefinite" />
            <animate attributeName="cy" values="300; 150" dur="4s" begin="1.33s" repeatCount="indefinite" />
            <animate attributeName="r" values="5; 45" dur="4s" begin="1.33s" repeatCount="indefinite" />
            <animate attributeName="opacity" values="0; 0.6; 0" dur="4s" begin="1.33s" repeatCount="indefinite" />
        </circle>
        <circle cx="225" cy="300" r="10" opacity="0">
            <animate attributeName="cx" values="225; 600" dur="4s" begin="2.66s" repeatCount="indefinite" />
            <animate attributeName="cy" values="300; 150" dur="4s" begin="2.66s" repeatCount="indefinite" />
            <animate attributeName="r" values="5; 45" dur="4s" begin="2.66s" repeatCount="indefinite" />
            <animate attributeName="opacity" values="0; 0.6; 0" dur="4s" begin="2.66s" repeatCount="indefinite" />
        </circle>
    </g>

    <g transform="translate(600, 150)">
        <line x1="0" y1="0" x2="-100" y2="40" stroke="#c59e5e" stroke-width="1.5" stroke-dasharray="4 4" opacity="0.6" />
        
        <circle cx="0" cy="0" r="12" fill="none" stroke="#c59e5e" stroke-width="2" />
        <circle cx="0" cy="0" r="5" fill="#c59e5e" />
        <text x="20" y="-5" fill="#c59e5e" font-size="14" letter-spacing="1">SENSOR-04</text>
        <text x="20" y="15" fill="#777" font-size="10">AIR QUALITY</text>
        
        <circle cx="0" cy="0" r="12" fill="none" stroke="#c59e5e" stroke-width="1.5">
            <animate attributeName="r" values="12; 45" dur="2s" repeatCount="indefinite" />
            <animate attributeName="opacity" values="0.8; 0" dur="2s" repeatCount="indefinite" />
        </circle>
    </g>

    <g transform="translate(225, 300)">
        <g stroke="#d64933" stroke-width="1.5" fill="none">
            <path d="M -45 -25 L -45 -45 L -25 -45" />
            <path d="M 45 -25 L 45 -45 L 25 -45" />
            <path d="M -45 25 L -45 45 L -25 45" />
            <path d="M 45 25 L 45 45 L 25 45" />
        </g>
        
        <rect x="-45" y="-45" width="90" height="90" fill="#d64933" opacity="0.1">
             <animate attributeName="opacity" values="0.05; 0.25; 0.05" dur="1.5s" repeatCount="indefinite" />
        </rect>

        <path d="M 0 -25 C 15 -10 20 0 20 10 C 20 20 10 25 0 25 C -10 25 -20 20 -20 10 C -20 0 -10 -15 0 -25 Z" fill="none" stroke="#d64933" stroke-width="2" stroke-linejoin="round" />
        <path d="M 0 -5 C 5 0 10 5 10 12 C 10 18 5 20 0 20 C -5 20 -10 18 -10 12 C -10 5 -5 0 0 -5 Z" fill="none" stroke="#d64933" stroke-width="2" stroke-linejoin="round" />

        <line x1="50" y1="-20" x2="80" y2="-50" stroke="#d64933" stroke-width="1" opacity="0.7" />
        <line x1="80" y1="-50" x2="160" y2="-50" stroke="#d64933" stroke-width="1" opacity="0.7" />
    </g>

    <g transform="translate(385, 250)">
        <rect x="0" y="-40" width="230" height="55" fill="#1e1312" stroke="#4a221f" stroke-width="1" />
        <text x="15" y="-18" fill="#d64933" font-size="14" font-weight="bold" letter-spacing="2">IGNITION DETECTED</text>
        <text x="15" y="4" fill="#888" font-size="11">S 4.406223°, W 64.819081°</text>
    </g>

    <g transform="translate(0, 470)">
        <line x1="0" y1="0" x2="800" y2="0" stroke="#222" stroke-width="1" />
        <text x="25" y="20" fill="#666" font-size="10" letter-spacing="1">S-01  NORTH RIDGE</text>
        <text x="700" y="20" fill="#666" font-size="10" letter-spacing="1">02:41:17</text>
        <circle cx="765" cy="17" r="4" fill="#d64933">
             <animate attributeName="opacity" values="1; 0.2; 1" dur="1s" repeatCount="indefinite" />
        </circle>
    </g>
</svg>