<svg width="874" height="555" viewBox="0 0 874 555" fill="none" xmlns="http://www.w3.org/2000/svg">
<rect width="874" height="555" fill="#141414"/>
<rect x="141.25" y="145.25" width="64.5" height="64.5" rx="5.75" stroke="#303030" stroke-width="2.5"/>
<rect x="141.25" y="245.25" width="64.5" height="64.5" rx="5.75" stroke="#303030" stroke-width="2.5"/>
<rect x="141.25" y="345.25" width="64.5" height="64.5" rx="5.75" stroke="#303030" stroke-width="2.5"/>
<rect x="241.25" y="145.25" width="64.5" height="64.5" rx="5.75" stroke="#303030" stroke-width="2.5"/>
<rect x="241.25" y="245.25" width="64.5" height="64.5" rx="5.75" stroke="#303030" stroke-width="2.5" stroke-dasharray="5 9"/>
<rect x="241.25" y="345.25" width="64.5" height="64.5" rx="5.75" stroke="#303030" stroke-width="2.5"/>
<rect x="341.25" y="145.25" width="64.5" height="64.5" rx="5.75" stroke="#303030" stroke-width="2.5"/>
<rect x="573.331" y="171.822" width="64.5" height="64.5" rx="5.75" transform="rotate(13 573.331 171.822)" stroke="#967741" stroke-width="2.5"/>
<rect x="341.25" y="245.25" width="64.5" height="64.5" rx="5.75" stroke="#303030" stroke-width="2.5"/>
<rect x="341.25" y="345.25" width="64.5" height="64.5" rx="5.75" stroke="#303030" stroke-width="2.5"/>
<circle cx="566" cy="206" r="35.75" stroke="#594E39" stroke-opacity="0.59" stroke-width="2.5"/>
<line x1="566.285" y1="201.959" x2="307.285" y2="278.959" stroke="#7A5F2F" stroke-opacity="0.75" stroke-width="2" stroke-dasharray="12 12"/>
<path d="M510.213 290.33C511.149 291.305 511.422 292.007 511.422 293.255V305.462C511.422 306.554 511.149 307.334 510.486 308.075C510.057 308.582 509.238 309.44 508.848 309.791C507.873 310.688 507.171 311 505.884 311H494.769V287.717H505.884C506.976 287.717 507.756 287.99 508.536 288.653C509.043 289.121 509.862 289.94 510.213 290.33ZM508.224 305.54V293.177C508.224 292.865 507.951 292.475 507.249 291.773C506.586 291.11 506.157 290.798 505.845 290.798H497.967V307.958H505.845C506.157 307.958 506.547 307.646 507.249 306.944C507.912 306.281 508.224 305.852 508.224 305.54ZM521.189 311H517.991V287.717H521.189V311ZM539.192 311.195H532.445C530.729 311.195 529.52 310.103 528.428 308.816C527.921 308.231 527.297 307.295 527.024 306.71L530.183 305.891C530.885 306.944 531.977 308.153 532.562 308.153H539.114C539.426 308.153 539.816 307.841 540.518 307.139C541.22 306.476 541.532 306.047 541.532 305.735V303.317C541.532 302.732 541.259 302.264 540.674 302.108L530.3 299.183C528.545 298.715 527.531 296.999 527.531 295.244V293.06C527.531 291.968 527.804 291.188 528.467 290.447C528.896 289.94 529.715 289.082 530.105 288.731C531.119 287.834 531.821 287.522 533.069 287.522H538.88C540.596 287.522 541.844 288.653 542.897 289.901C543.404 290.486 544.028 291.422 544.301 292.007L541.142 292.865C540.479 291.773 539.348 290.603 538.802 290.603H533.108C532.796 290.603 532.406 290.876 531.704 291.578C531.041 292.241 530.729 292.67 530.729 292.982V295.049C530.729 295.634 531.002 296.102 531.509 296.258L541.961 299.222C543.755 299.729 544.73 301.445 544.73 303.122V305.657C544.73 306.749 544.457 307.529 543.794 308.27C543.326 308.777 542.507 309.635 542.117 309.986C541.142 310.883 540.44 311.195 539.192 311.195ZM566.088 290.33C566.556 291.032 566.751 291.851 566.751 292.67V296.297C566.751 297.116 566.556 297.935 566.088 298.637C565.737 299.144 564.645 300.197 564.138 300.548C563.436 301.055 562.656 301.25 561.837 301.25H553.998V311H550.8V287.717H561.837C562.656 287.717 563.436 287.912 564.138 288.419C564.645 288.77 565.737 289.823 566.088 290.33ZM563.553 296.141V292.826C563.553 292.397 563.358 292.085 562.812 291.5C562.266 290.954 561.954 290.798 561.486 290.798H553.998V298.169H561.486C561.954 298.169 562.266 298.013 562.812 297.428C563.397 296.882 563.553 296.57 563.553 296.141ZM575.505 287.717V307.958H586.113V311H572.307V287.717H575.505ZM608.965 311H605.572L603.895 305.852H594.145L592.429 311H589.036L596.953 287.717H601.048L608.965 311ZM599.02 291.071L595.12 302.81H602.881L599.02 291.071ZM623.879 311.195H618.419C617.327 311.195 616.547 310.922 615.806 310.259C615.299 309.83 614.441 309.011 614.09 308.621C613.193 307.607 612.881 306.905 612.881 305.657V293.06C612.881 291.968 613.154 291.188 613.817 290.447C614.285 289.94 615.104 289.082 615.494 288.731C616.469 287.834 617.171 287.522 618.419 287.522H623.879C625.595 287.522 626.843 288.653 627.896 289.901C628.403 290.486 629.027 291.422 629.3 292.007L626.141 292.865C625.478 291.773 624.347 290.603 623.801 290.603H618.497C618.185 290.603 617.795 290.876 617.093 291.578C616.391 292.241 616.079 292.67 616.079 292.982V305.735C616.079 306.047 616.391 306.437 617.093 307.139C617.756 307.841 618.185 308.153 618.497 308.153H623.801C624.347 308.153 625.478 306.944 626.141 305.891L629.3 306.71C629.027 307.295 628.403 308.231 627.896 308.816C626.843 310.103 625.595 311.195 623.879 311.195ZM648.891 287.717V290.798H638.049V297.857H648.15V300.899H638.049V307.958H648.891V311H634.851V287.717H648.891ZM670.85 290.33C671.786 291.305 672.059 292.007 672.059 293.255V305.462C672.059 306.554 671.786 307.334 671.123 308.075C670.694 308.582 669.875 309.44 669.485 309.791C668.51 310.688 667.808 311 666.521 311H655.406V287.717H666.521C667.613 287.717 668.393 287.99 669.173 288.653C669.68 289.121 670.499 289.94 670.85 290.33ZM668.861 305.54V293.177C668.861 292.865 668.588 292.475 667.886 291.773C667.223 291.11 666.794 290.798 666.482 290.798H658.604V307.958H666.482C666.794 307.958 667.184 307.646 667.886 306.944C668.549 306.281 668.861 305.852 668.861 305.54Z" fill="#967741"/>
<path d="M501.025 341.125H496.7C495.6 341.125 494.825 340.425 494.125 339.6C493.8 339.225 493.4 338.625 493.225 338.25L495.25 337.725C495.7 338.4 496.4 339.175 496.775 339.175H500.975C501.175 339.175 501.425 338.975 501.875 338.525C502.325 338.1 502.525 337.825 502.525 337.625V336.075C502.525 335.7 502.35 335.4 501.975 335.3L495.325 333.425C494.2 333.125 493.55 332.025 493.55 330.9V329.5C493.55 328.8 493.725 328.3 494.15 327.825C494.425 327.5 494.95 326.95 495.2 326.725C495.85 326.15 496.3 325.95 497.1 325.95H500.825C501.925 325.95 502.725 326.675 503.4 327.475C503.725 327.85 504.125 328.45 504.3 328.825L502.275 329.375C501.85 328.675 501.125 327.925 500.775 327.925H497.125C496.925 327.925 496.675 328.1 496.225 328.55C495.8 328.975 495.6 329.25 495.6 329.45V330.775C495.6 331.15 495.775 331.45 496.1 331.55L502.8 333.45C503.95 333.775 504.575 334.875 504.575 335.95V337.575C504.575 338.275 504.4 338.775 503.975 339.25C503.675 339.575 503.15 340.125 502.9 340.35C502.275 340.925 501.825 341.125 501.025 341.125ZM523.301 335.9H524.976V337.85H523.301V341H521.276V337.85H514.351V336.05L520.226 326.075H523.301V335.9ZM521.276 328.05L516.726 335.9H521.276V328.05ZM531.216 341H528.641V338.35H531.216V341ZM543.746 335.9H545.421V337.85H543.746V341H541.721V337.85H534.796V336.05L540.671 326.075H543.746V335.9ZM541.721 328.05L537.171 335.9H541.721V328.05ZM555.636 341.125H552.111C551.586 341.125 551.061 341 550.636 340.7C550.311 340.475 549.611 339.775 549.386 339.45C549.086 339.025 548.961 338.5 548.961 337.975V329.125C548.961 328.6 549.086 328.075 549.386 327.625C549.611 327.3 550.311 326.625 550.636 326.4C551.061 326.075 551.586 325.95 552.111 325.95H555.636C556.161 325.95 556.686 326.075 557.136 326.4C557.461 326.625 558.136 327.3 558.361 327.625C558.686 328.075 558.811 328.6 558.811 329.125V337.975C558.811 338.5 558.686 339.025 558.361 339.45C558.136 339.775 557.461 340.475 557.136 340.7C556.686 341 556.161 341.125 555.636 341.125ZM551.011 329.225V337.85C551.011 338.15 551.111 338.35 551.486 338.7C551.836 339.075 552.036 339.175 552.311 339.175H555.436C555.736 339.175 555.936 339.05 556.286 338.7C556.636 338.35 556.761 338.15 556.761 337.85V329.225C556.761 328.95 556.636 328.75 556.286 328.375C555.911 328.025 555.736 327.925 555.436 327.925H552.311C552.036 327.925 551.836 328.025 551.461 328.4C551.111 328.75 551.011 328.95 551.011 329.225ZM571.998 333.275C572.298 333.725 572.423 334.225 572.423 334.75V337.975C572.423 338.5 572.298 339 571.998 339.45C571.773 339.775 571.073 340.475 570.748 340.7C570.323 341 569.798 341.125 569.273 341.125H565.898C565.373 341.125 564.848 341 564.423 340.7C564.098 340.475 563.398 339.775 563.173 339.45C562.873 339 562.748 338.5 562.748 337.975V329.125C562.748 328.6 562.873 328.075 563.173 327.625C563.398 327.3 564.098 326.625 564.423 326.4C564.848 326.075 565.373 325.95 565.898 325.95H568.923C570.023 325.95 570.823 326.675 571.523 327.475C571.848 327.85 572.223 328.45 572.398 328.825L570.373 329.375C569.948 328.675 569.223 327.925 568.873 327.925H566.098C565.823 327.925 565.623 328.025 565.248 328.4C564.898 328.75 564.798 328.95 564.798 329.225V332.575C565.298 332.05 565.973 331.6 566.548 331.6H569.273C569.798 331.6 570.323 331.725 570.748 332.025C571.073 332.25 571.773 332.95 571.998 333.275ZM570.373 337.85V334.85C570.373 334.55 570.273 334.35 569.898 334C569.548 333.625 569.348 333.525 569.073 333.525H566.473C566.098 333.525 565.223 334.25 564.798 334.95V337.85C564.798 338.15 564.898 338.35 565.273 338.7C565.623 339.05 565.823 339.175 566.098 339.175H569.073C569.348 339.175 569.548 339.05 569.923 338.7C570.273 338.325 570.373 338.15 570.373 337.85ZM583.746 333.45L578.671 336.1C578.296 336.3 578.096 336.625 578.096 336.95V339.05H585.271V341H576.046V336.825C576.046 335.675 576.771 334.875 577.771 334.35L582.896 331.675C583.221 331.525 583.396 331.225 583.396 330.875V329.225C583.396 328.95 583.296 328.75 582.921 328.375C582.571 328.025 582.371 327.925 582.096 327.925H579.396C579.046 327.925 578.321 328.675 577.896 329.375L575.871 328.825C576.071 328.4 576.446 327.85 576.771 327.475C577.521 326.6 578.271 325.95 579.346 325.95H582.296C582.821 325.95 583.346 326.075 583.771 326.4C584.096 326.625 584.796 327.3 585.021 327.625C585.321 328.075 585.446 328.6 585.446 329.125V330.925C585.446 332.1 584.696 332.975 583.746 333.45ZM596.849 333.45L591.774 336.1C591.399 336.3 591.199 336.625 591.199 336.95V339.05H598.374V341H589.149V336.825C589.149 335.675 589.874 334.875 590.874 334.35L595.999 331.675C596.324 331.525 596.499 331.225 596.499 330.875V329.225C596.499 328.95 596.399 328.75 596.024 328.375C595.674 328.025 595.474 327.925 595.199 327.925H592.499C592.149 327.925 591.424 328.675 590.999 329.375L588.974 328.825C589.174 328.4 589.549 327.85 589.874 327.475C590.624 326.6 591.374 325.95 592.449 325.95H595.399C595.924 325.95 596.449 326.075 596.874 326.4C597.199 326.625 597.899 327.3 598.124 327.625C598.424 328.075 598.549 328.6 598.549 329.125V330.925C598.549 332.1 597.799 332.975 596.849 333.45ZM611.778 329.125V331.225C611.778 332.225 611.203 332.8 610.478 333.475C611.228 334.15 611.778 334.7 611.778 335.675V337.975C611.778 338.5 611.653 339 611.328 339.45C611.103 339.775 610.428 340.475 610.103 340.7C609.653 341 609.128 341.125 608.603 341.125H605.428C604.328 341.125 603.528 340.425 602.853 339.6C602.528 339.225 602.128 338.625 601.953 338.25L603.978 337.725C604.403 338.4 605.128 339.175 605.478 339.175H608.403C608.703 339.175 608.903 339.05 609.253 338.7C609.603 338.325 609.728 338.15 609.728 337.85V335.75C609.728 335.45 609.603 335.25 609.253 334.9C608.878 334.525 608.703 334.425 608.403 334.425H605.278V332.475H608.403C608.703 332.475 608.903 332.375 609.253 332C609.603 331.65 609.728 331.45 609.728 331.175V329.225C609.728 328.95 609.603 328.75 609.253 328.375C608.878 328.025 608.703 327.925 608.403 327.925H605.478C605.128 327.925 604.403 328.675 603.978 329.375L601.953 328.825C602.128 328.475 602.503 327.875 602.853 327.475C603.553 326.675 604.328 325.95 605.428 325.95H608.603C609.128 325.95 609.653 326.075 610.103 326.4C610.428 326.625 611.103 327.3 611.328 327.625C611.653 328.075 611.778 328.6 611.778 329.125ZM619.45 330.8C618.633 330.8 617.916 330.633 617.3 330.3C616.7 329.967 616.225 329.508 615.875 328.925C615.525 328.325 615.35 327.633 615.35 326.85C615.35 326.083 615.516 325.4 615.85 324.8C616.2 324.2 616.675 323.733 617.275 323.4C617.891 323.067 618.616 322.9 619.45 322.9C620.25 322.9 620.958 323.067 621.575 323.4C622.191 323.733 622.666 324.2 623 324.8C623.35 325.383 623.525 326.067 623.525 326.85C623.525 327.633 623.35 328.325 623 328.925C622.666 329.508 622.191 329.967 621.575 330.3C620.958 330.633 620.25 330.8 619.45 330.8ZM619.475 329.075C620.191 329.075 620.733 328.875 621.1 328.475C621.483 328.058 621.675 327.517 621.675 326.85C621.675 326.4 621.583 326.008 621.4 325.675C621.233 325.325 620.983 325.058 620.65 324.875C620.333 324.692 619.941 324.6 619.475 324.6C618.741 324.6 618.183 324.808 617.8 325.225C617.416 325.625 617.225 326.167 617.225 326.85C617.225 327.517 617.416 328.058 617.8 328.475C618.183 328.875 618.741 329.075 619.475 329.075ZM629.768 339.1L628.893 343.1H626.743L627.668 338.8L629.768 339.1ZM651.388 338.025L653.938 326.075H656.063L652.688 341H650.163L647.538 329.55L644.913 341H642.363L639.038 326.075H641.163L643.663 338.025L646.438 326.075H648.638L651.388 338.025ZM674.549 333.275C674.849 333.725 674.974 334.225 674.974 334.75V337.975C674.974 338.5 674.849 339 674.549 339.45C674.324 339.775 673.624 340.475 673.299 340.7C672.874 341 672.349 341.125 671.824 341.125H668.449C667.924 341.125 667.399 341 666.974 340.7C666.649 340.475 665.949 339.775 665.724 339.45C665.424 339 665.299 338.5 665.299 337.975V329.125C665.299 328.6 665.424 328.075 665.724 327.625C665.949 327.3 666.649 326.625 666.974 326.4C667.399 326.075 667.924 325.95 668.449 325.95H671.474C672.574 325.95 673.374 326.675 674.074 327.475C674.399 327.85 674.774 328.45 674.949 328.825L672.924 329.375C672.499 328.675 671.774 327.925 671.424 327.925H668.649C668.374 327.925 668.174 328.025 667.799 328.4C667.449 328.75 667.349 328.95 667.349 329.225V332.575C667.849 332.05 668.524 331.6 669.099 331.6H671.824C672.349 331.6 672.874 331.725 673.299 332.025C673.624 332.25 674.324 332.95 674.549 333.275ZM672.924 337.85V334.85C672.924 334.55 672.824 334.35 672.449 334C672.099 333.625 671.899 333.525 671.624 333.525H669.024C668.649 333.525 667.774 334.25 667.349 334.95V337.85C667.349 338.15 667.449 338.35 667.824 338.7C668.174 339.05 668.374 339.175 668.649 339.175H671.624C671.899 339.175 672.099 339.05 672.474 338.7C672.824 338.325 672.924 338.15 672.924 337.85ZM687.121 335.9H688.796V337.85H687.121V341H685.096V337.85H678.171V336.05L684.046 326.075H687.121V335.9ZM685.096 328.05L680.546 335.9H685.096V328.05ZM695.036 341H692.461V338.35H695.036V341ZM708.767 329.125V331.25C708.767 332.2 708.242 332.825 707.517 333.5C708.292 334.275 708.767 334.75 708.767 335.725V337.975C708.767 338.5 708.642 339.025 708.342 339.45C708.117 339.775 707.417 340.475 707.092 340.7C706.667 341 706.142 341.125 705.617 341.125H702.267C701.742 341.125 701.217 341 700.792 340.7C700.467 340.475 699.767 339.775 699.542 339.45C699.242 339.025 699.117 338.5 699.117 337.975V335.725C699.117 334.75 699.667 334.2 700.367 333.5C699.617 332.8 699.117 332.2 699.117 331.25V329.125C699.117 328.6 699.242 328.075 699.542 327.625C699.767 327.3 700.467 326.625 700.792 326.4C701.217 326.075 701.742 325.95 702.267 325.95H705.617C706.142 325.95 706.667 326.075 707.092 326.4C707.417 326.625 708.117 327.3 708.342 327.625C708.642 328.075 708.767 328.6 708.767 329.125ZM706.717 331.225V329.225C706.717 328.95 706.617 328.75 706.242 328.375C705.892 328.025 705.692 327.925 705.417 327.925H702.467C702.192 327.925 701.992 328.025 701.617 328.4C701.267 328.75 701.167 328.95 701.167 329.225V331.225C701.167 331.525 701.267 331.725 701.642 332.075C701.992 332.45 702.192 332.55 702.467 332.55H705.417C705.692 332.55 705.892 332.425 706.267 332.075C706.617 331.725 706.717 331.525 706.717 331.225ZM706.717 337.85V335.8C706.717 335.5 706.617 335.3 706.242 334.95C705.892 334.575 705.692 334.475 705.417 334.475H702.467C702.192 334.475 701.992 334.6 701.617 334.95C701.267 335.3 701.167 335.5 701.167 335.8V337.85C701.167 338.15 701.267 338.35 701.642 338.7C701.992 339.075 702.192 339.175 702.467 339.175H705.417C705.692 339.175 705.892 339.05 706.267 338.7C706.617 338.35 706.717 338.15 706.717 337.85ZM712.633 328.05V326.075H717.858V341H715.808V328.05H712.633ZM731.98 327.625C732.28 328.075 732.405 328.6 732.405 329.125V337.975C732.405 338.5 732.28 339 731.98 339.45C731.755 339.775 731.055 340.475 730.73 340.7C730.28 341 729.78 341.125 729.255 341.125H726.23C725.13 341.125 724.33 340.425 723.63 339.6C723.305 339.225 722.905 338.625 722.755 338.25L724.78 337.725C725.18 338.425 725.93 339.175 726.28 339.175H729.03C729.33 339.175 729.53 339.05 729.88 338.7C730.255 338.325 730.355 338.15 730.355 337.85V334.5C729.855 335 729.205 335.5 728.605 335.5H725.88C725.355 335.5 724.83 335.375 724.38 335.075C724.055 334.85 723.38 334.15 723.155 333.825C722.83 333.4 722.705 332.875 722.705 332.35V329.125C722.705 328.6 722.83 328.075 723.155 327.625C723.38 327.3 724.055 326.625 724.38 326.4C724.83 326.075 725.355 325.95 725.88 325.95H729.255C729.78 325.95 730.28 326.075 730.73 326.4C731.055 326.625 731.755 327.3 731.98 327.625ZM726.105 333.575H728.605C729.105 333.575 729.83 332.9 730.355 332.175V329.225C730.355 328.95 730.23 328.75 729.88 328.375C729.53 328.025 729.33 327.925 729.03 327.925H726.105C725.805 327.925 725.605 328.025 725.255 328.4C724.88 328.75 724.78 328.95 724.78 329.225V332.275C724.78 332.55 724.905 332.75 725.255 333.125C725.605 333.475 725.805 333.575 726.105 333.575ZM743.027 341.125H739.502C738.977 341.125 738.452 341 738.027 340.7C737.702 340.475 737.002 339.775 736.777 339.45C736.477 339.025 736.352 338.5 736.352 337.975V329.125C736.352 328.6 736.477 328.075 736.777 327.625C737.002 327.3 737.702 326.625 738.027 326.4C738.452 326.075 738.977 325.95 739.502 325.95H743.027C743.552 325.95 744.077 326.075 744.527 326.4C744.852 326.625 745.527 327.3 745.752 327.625C746.077 328.075 746.202 328.6 746.202 329.125V337.975C746.202 338.5 746.077 339.025 745.752 339.45C745.527 339.775 744.852 340.475 744.527 340.7C744.077 341 743.552 341.125 743.027 341.125ZM738.402 329.225V337.85C738.402 338.15 738.502 338.35 738.877 338.7C739.227 339.075 739.427 339.175 739.702 339.175H742.827C743.127 339.175 743.327 339.05 743.677 338.7C744.027 338.35 744.152 338.15 744.152 337.85V329.225C744.152 328.95 744.027 328.75 743.677 328.375C743.302 328.025 743.127 327.925 742.827 327.925H739.702C739.427 327.925 739.227 328.025 738.852 328.4C738.502 328.75 738.402 328.95 738.402 329.225ZM759.789 329.125V331.25C759.789 332.2 759.264 332.825 758.539 333.5C759.314 334.275 759.789 334.75 759.789 335.725V337.975C759.789 338.5 759.664 339.025 759.364 339.45C759.139 339.775 758.439 340.475 758.114 340.7C757.689 341 757.164 341.125 756.639 341.125H753.289C752.764 341.125 752.239 341 751.814 340.7C751.489 340.475 750.789 339.775 750.564 339.45C750.264 339.025 750.139 338.5 750.139 337.975V335.725C750.139 334.75 750.689 334.2 751.389 333.5C750.639 332.8 750.139 332.2 750.139 331.25V329.125C750.139 328.6 750.264 328.075 750.564 327.625C750.789 327.3 751.489 326.625 751.814 326.4C752.239 326.075 752.764 325.95 753.289 325.95H756.639C757.164 325.95 757.689 326.075 758.114 326.4C758.439 326.625 759.139 327.3 759.364 327.625C759.664 328.075 759.789 328.6 759.789 329.125ZM757.739 331.225V329.225C757.739 328.95 757.639 328.75 757.264 328.375C756.914 328.025 756.714 327.925 756.439 327.925H753.489C753.214 327.925 753.014 328.025 752.639 328.4C752.289 328.75 752.189 328.95 752.189 329.225V331.225C752.189 331.525 752.289 331.725 752.664 332.075C753.014 332.45 753.214 332.55 753.489 332.55H756.439C756.714 332.55 756.914 332.425 757.289 332.075C757.639 331.725 757.739 331.525 757.739 331.225ZM757.739 337.85V335.8C757.739 335.5 757.639 335.3 757.264 334.95C756.914 334.575 756.714 334.475 756.439 334.475H753.489C753.214 334.475 753.014 334.6 752.639 334.95C752.289 335.3 752.189 335.5 752.189 335.8V337.85C752.189 338.15 752.289 338.35 752.664 338.7C753.014 339.075 753.214 339.175 753.489 339.175H756.439C756.714 339.175 756.914 339.05 757.289 338.7C757.639 338.35 757.739 338.15 757.739 337.85ZM763.656 328.05V326.075H768.881V341H766.831V328.05H763.656ZM777.752 330.8C776.936 330.8 776.219 330.633 775.602 330.3C775.002 329.967 774.527 329.508 774.177 328.925C773.827 328.325 773.652 327.633 773.652 326.85C773.652 326.083 773.819 325.4 774.152 324.8C774.502 324.2 774.977 323.733 775.577 323.4C776.194 323.067 776.919 322.9 777.752 322.9C778.552 322.9 779.261 323.067 779.877 323.4C780.494 323.733 780.969 324.2 781.302 324.8C781.652 325.383 781.827 326.067 781.827 326.85C781.827 327.633 781.652 328.325 781.302 328.925C780.969 329.508 780.494 329.967 779.877 330.3C779.261 330.633 778.552 330.8 777.752 330.8ZM777.777 329.075C778.494 329.075 779.036 328.875 779.402 328.475C779.786 328.058 779.977 327.517 779.977 326.85C779.977 326.4 779.886 326.008 779.702 325.675C779.536 325.325 779.286 325.058 778.952 324.875C778.636 324.692 778.244 324.6 777.777 324.6C777.044 324.6 776.486 324.808 776.102 325.225C775.719 325.625 775.527 326.167 775.527 326.85C775.527 327.517 775.719 328.058 776.102 328.475C776.486 328.875 777.044 329.075 777.777 329.075Z" fill="#5E5858"/>
</svg>
