<svg width="874" height="555" viewBox="0 0 874 555" fill="none" xmlns="http://www.w3.org/2000/svg">
<rect width="874" height="555" fill="#141414"/>
<path d="M730.83 452.46V450.09H737.1V468H734.64V452.46H730.83ZM752.486 461.88H754.496V464.22H752.486V468H750.056V464.22H741.746V462.06L748.796 450.09H752.486V461.88ZM750.056 452.46L744.596 461.88H750.056V452.46ZM761.054 460.02H758.024V456.87H761.054V460.02ZM761.054 468H758.024V464.82H761.054V468ZM774.23 458.94L768.14 462.12C767.69 462.36 767.45 462.75 767.45 463.14V465.66H776.06V468H764.99V462.99C764.99 461.61 765.86 460.65 767.06 460.02L773.21 456.81C773.6 456.63 773.81 456.27 773.81 455.85V453.87C773.81 453.54 773.69 453.3 773.24 452.85C772.82 452.43 772.58 452.31 772.25 452.31H769.01C768.59 452.31 767.72 453.21 767.21 454.05L764.78 453.39C765.02 452.88 765.47 452.22 765.86 451.77C766.76 450.72 767.66 449.94 768.95 449.94H772.49C773.12 449.94 773.75 450.09 774.26 450.48C774.65 450.75 775.49 451.56 775.76 451.95C776.12 452.49 776.27 453.12 776.27 453.75V455.91C776.27 457.32 775.37 458.37 774.23 458.94ZM791.244 453.75V456.27C791.244 457.47 790.554 458.16 789.684 458.97C790.584 459.78 791.244 460.44 791.244 461.61V464.37C791.244 465 791.094 465.6 790.704 466.14C790.434 466.53 789.624 467.37 789.234 467.64C788.694 468 788.064 468.15 787.434 468.15H783.624C782.304 468.15 781.344 467.31 780.534 466.32C780.144 465.87 779.664 465.15 779.454 464.7L781.884 464.07C782.394 464.88 783.264 465.81 783.684 465.81H787.194C787.554 465.81 787.794 465.66 788.214 465.24C788.634 464.79 788.784 464.58 788.784 464.22V461.7C788.784 461.34 788.634 461.1 788.214 460.68C787.764 460.23 787.554 460.11 787.194 460.11H783.444V457.77H787.194C787.554 457.77 787.794 457.65 788.214 457.2C788.634 456.78 788.784 456.54 788.784 456.21V453.87C788.784 453.54 788.634 453.3 788.214 452.85C787.764 452.43 787.554 452.31 787.194 452.31H783.684C783.264 452.31 782.394 453.21 781.884 454.05L779.454 453.39C779.664 452.97 780.114 452.25 780.534 451.77C781.374 450.81 782.304 449.94 783.624 449.94H787.434C788.064 449.94 788.694 450.09 789.234 450.48C789.624 450.75 790.434 451.56 790.704 451.95C791.094 452.49 791.244 453.12 791.244 453.75ZM798.261 460.02H795.231V456.87H798.261V460.02ZM798.261 468H795.231V464.82H798.261V468ZM812.427 461.88H814.437V464.22H812.427V468H809.997V464.22H801.687V462.06L808.737 450.09H812.427V461.88ZM809.997 452.46L804.537 461.88H809.997V452.46ZM817.695 452.46V450.09H823.965V468H821.505V452.46H817.695Z" fill="#7B7575"/>
<path d="M46 220H170.417C170.472 220 170.526 219.989 170.576 219.967L185.277 213.597C185.414 213.537 185.573 213.559 185.688 213.653L201.314 226.349C201.429 226.442 201.585 226.464 201.721 226.407L216.926 220.031C216.975 220.011 217.027 220 217.08 220H324.342C324.443 220 324.541 219.961 324.615 219.892L340.479 204.989C340.707 204.775 341.081 204.894 341.145 205.2L349.571 245.926C349.66 246.359 350.279 246.368 350.353 245.933C351.646 238.368 356.218 211.627 359.539 192.199C359.616 191.744 360.274 191.766 360.329 192.224L368.571 260.449C368.628 260.922 369.317 260.916 369.366 260.442L377.586 180.522C377.636 180.042 378.337 180.044 378.382 180.525L387.073 272.007C387.119 272.493 387.83 272.488 387.87 272.002L396.598 165.892C396.638 165.402 397.355 165.403 397.395 165.893L405.649 268.156C405.688 268.641 406.396 268.649 406.446 268.164L414.722 187.705C414.769 187.247 415.426 187.218 415.513 187.67L424.266 233.281C424.339 233.663 424.859 233.726 425.022 233.374L433.845 214.334C433.933 214.145 434.15 214.055 434.346 214.127L448.933 219.476C448.977 219.492 449.024 219.5 449.071 219.5H604.422C604.473 219.5 604.525 219.49 604.572 219.471L620.273 213.092C620.412 213.036 620.572 213.062 620.685 213.161L635.312 225.837C635.427 225.937 635.589 225.963 635.729 225.904L650.926 219.531C650.975 219.511 651.027 219.5 651.08 219.5H828" stroke="#7B7575"/>
<path d="M46 379H232.417C232.472 379 232.526 378.989 232.576 378.967L247.278 372.596C247.415 372.537 247.573 372.558 247.688 372.652L262.82 384.855C262.931 384.945 263.082 384.968 263.216 384.917L278.43 379.027C278.476 379.009 278.525 379 278.575 379H339.78C339.917 379 340.044 378.93 340.118 378.814L349.003 364.785C349.19 364.489 349.642 364.561 349.728 364.901L358.54 399.686C358.646 400.104 359.248 400.081 359.322 399.656L367.59 352.347C367.668 351.903 368.307 351.907 368.379 352.352L377.087 406.436C377.16 406.888 377.811 406.883 377.878 406.431L387.138 343.46C387.204 343.01 387.85 343.002 387.928 343.449L396.218 390.886C396.29 391.299 396.867 391.337 396.993 390.938L405.28 364.698C405.375 364.396 405.766 364.319 405.968 364.562L417.88 378.856C417.956 378.947 418.069 379 418.187 379H828" stroke="#7B7575" stroke-opacity="0.5"/>
<line x1="320" y1="289.35" x2="326" y2="289.35" stroke="#862C2C" stroke-width="1.3"/>
<rect x="326" y="137" width="129" height="305" fill="#FF0000" fill-opacity="0.02"/>
<rect x="326.1" y="137.1" width="128.8" height="304.8" stroke="#832B2B" stroke-opacity="0.8" stroke-width="0.2" stroke-linejoin="round"/>
<line x1="425" y1="440" x2="455" y2="440" stroke="#842C2C" stroke-width="4"/>
<line x1="453" y1="439.6" x2="453" y2="412" stroke="#842C2C" stroke-width="4"/>
<line x1="453" y1="167" x2="453" y2="137" stroke="#842C2C" stroke-width="4"/>
<line x1="452.6" y1="139" x2="425" y2="139" stroke="#842C2C" stroke-width="4"/>
<line x1="356" y1="139" x2="326" y2="139" stroke="#842C2C" stroke-width="4"/>
<line x1="328" y1="139.4" x2="328" y2="167" stroke="#842C2C" stroke-width="4"/>
<line x1="328" y1="412" x2="328" y2="442" stroke="#842C2C" stroke-width="4"/>
<line x1="328.4" y1="440" x2="356" y2="440" stroke="#842C2C" stroke-width="4"/>
<line x1="391.65" y1="131" x2="391.65" y2="137" stroke="#862C2C" stroke-width="1.3"/>
<line x1="455" y1="289.35" x2="461" y2="289.35" stroke="#862C2C" stroke-width="1.3"/>
<line x1="391.65" y1="442" x2="391.65" y2="448" stroke="#862C2C" stroke-width="1.3"/>
<path d="M338.442 117H335.49V95.508H338.442V117ZM354.664 107.748L360.244 95.508H363.988V117H361.036V100.26L355.996 111.348H353.332L348.292 100.224V117H345.34V95.508H349.084L354.664 107.748ZM385.018 97.92C385.45 98.568 385.63 99.324 385.63 100.08V103.428C385.63 104.184 385.45 104.94 385.018 105.588C384.694 106.056 383.686 107.028 383.218 107.352C382.57 107.82 381.85 108 381.094 108H373.858V117H370.906V95.508H381.094C381.85 95.508 382.57 95.688 383.218 96.156C383.686 96.48 384.694 97.452 385.018 97.92ZM382.678 103.284V100.224C382.678 99.828 382.498 99.54 381.994 99C381.49 98.496 381.202 98.352 380.77 98.352H373.858V105.156H380.77C381.202 105.156 381.49 105.012 381.994 104.472C382.534 103.968 382.678 103.68 382.678 103.284ZM405.886 117H402.754L401.206 112.248H392.206L390.622 117H387.49L394.798 95.508H398.578L405.886 117ZM396.706 98.604L393.106 109.44H400.27L396.706 98.604ZM420.373 117.18H415.333C414.325 117.18 413.605 116.928 412.921 116.316C412.453 115.92 411.661 115.164 411.337 114.804C410.509 113.868 410.221 113.22 410.221 112.068V100.44C410.221 99.432 410.473 98.712 411.085 98.028C411.517 97.56 412.273 96.768 412.633 96.444C413.533 95.616 414.181 95.328 415.333 95.328H420.373C421.957 95.328 423.109 96.372 424.081 97.524C424.549 98.064 425.125 98.928 425.377 99.468L422.461 100.26C421.849 99.252 420.805 98.172 420.301 98.172H415.405C415.117 98.172 414.757 98.424 414.109 99.072C413.461 99.684 413.173 100.08 413.173 100.368V112.14C413.173 112.428 413.461 112.788 414.109 113.436C414.721 114.084 415.117 114.372 415.405 114.372H420.301C420.805 114.372 421.849 113.256 422.461 112.284L425.377 113.04C425.125 113.58 424.549 114.444 424.081 114.984C423.109 116.172 421.957 117.18 420.373 117.18ZM429.852 95.508H444.864V98.352H438.816V117H435.864V98.352H429.852V95.508Z" fill="#A53231"/>
<path d="M52.96 212.1H50.16C49.6 212.1 49.2 211.96 48.82 211.62C48.56 211.4 48.12 210.98 47.94 210.78C47.48 210.26 47.32 209.9 47.32 209.26V202.8C47.32 202.24 47.46 201.84 47.8 201.46C48.04 201.2 48.46 200.76 48.66 200.58C49.16 200.12 49.52 199.96 50.16 199.96H52.96C53.84 199.96 54.48 200.54 55.02 201.18C55.28 201.48 55.6 201.96 55.74 202.26L54.12 202.7C53.78 202.14 53.2 201.54 52.92 201.54H50.2C50.04 201.54 49.84 201.68 49.48 202.04C49.12 202.38 48.96 202.6 48.96 202.76V209.3C48.96 209.46 49.12 209.66 49.48 210.02C49.82 210.38 50.04 210.54 50.2 210.54H52.92C53.2 210.54 53.78 209.92 54.12 209.38L55.74 209.8C55.6 210.1 55.28 210.58 55.02 210.88C54.48 211.54 53.84 212.1 52.96 212.1ZM64.6064 205.26V200.06H66.2464V212H64.6064V206.82H59.6264V212H57.9864V200.06H59.6264V205.26H64.6064ZM68.8802 201.64V200.06H73.0602V212H71.4202V201.64H68.8802ZM90.3258 212H88.5858L87.7258 209.36H82.7258L81.8458 212H80.1058L84.1658 200.06H86.2658L90.3258 212ZM85.2258 201.78L83.2258 207.8H87.2058L85.2258 201.78ZM97.3741 212.1H94.5741C94.0141 212.1 93.6141 211.96 93.2341 211.62C92.9741 211.4 92.5341 210.98 92.3541 210.78C91.8941 210.26 91.7341 209.9 91.7341 209.26V202.8C91.7341 202.24 91.8741 201.84 92.2141 201.46C92.4541 201.2 92.8741 200.76 93.0741 200.58C93.5741 200.12 93.9341 199.96 94.5741 199.96H97.3741C98.2541 199.96 98.8941 200.54 99.4341 201.18C99.6941 201.48 100.014 201.96 100.154 202.26L98.5341 202.7C98.1941 202.14 97.6141 201.54 97.3341 201.54H94.6141C94.4541 201.54 94.2541 201.68 93.8941 202.04C93.5341 202.38 93.3741 202.6 93.3741 202.76V209.3C93.3741 209.46 93.5341 209.66 93.8941 210.02C94.2341 210.38 94.4541 210.54 94.6141 210.54H97.3341C97.6141 210.54 98.1941 209.92 98.5341 209.38L100.154 209.8C100.014 210.1 99.6941 210.58 99.4341 210.88C98.8941 211.54 98.2541 212.1 97.3741 212.1ZM108.24 212.1H105.14C104.58 212.1 104.18 211.96 103.8 211.62C103.54 211.4 103.1 210.98 102.92 210.78C102.46 210.26 102.3 209.9 102.3 209.26V202.8C102.3 202.24 102.44 201.84 102.78 201.46C103.02 201.2 103.44 200.76 103.64 200.58C104.14 200.12 104.5 199.96 105.14 199.96H108.24C108.8 199.96 109.2 200.1 109.58 200.44C109.84 200.68 110.28 201.1 110.46 201.3C110.92 201.8 111.08 202.16 111.08 202.8V209.26C111.08 209.82 110.94 210.22 110.6 210.6C110.36 210.86 109.94 211.3 109.74 211.48C109.24 211.94 108.88 212.1 108.24 212.1ZM103.94 202.76V209.3C103.94 209.46 104.1 209.66 104.46 210.02C104.8 210.38 105.02 210.54 105.18 210.54H108.2C108.36 210.54 108.56 210.38 108.92 210.02C109.28 209.68 109.44 209.46 109.44 209.3V202.76C109.44 202.6 109.28 202.4 108.92 202.04C108.58 201.7 108.36 201.54 108.2 201.54H105.18C105.02 201.54 104.82 201.68 104.46 202.04C104.1 202.38 103.94 202.6 103.94 202.76ZM119.246 212.1H116.666C116.106 212.1 115.706 211.96 115.326 211.62C115.066 211.4 114.626 210.98 114.446 210.78C113.986 210.28 113.826 209.92 113.826 209.26V200.06H115.466V209.32C115.466 209.48 115.606 209.68 115.966 210.04C116.326 210.38 116.526 210.54 116.686 210.54H119.206C119.366 210.54 119.566 210.4 119.926 210.04C120.286 209.68 120.446 209.48 120.446 209.32V200.06H122.086V209.26C122.086 209.82 121.946 210.22 121.606 210.62C121.366 210.88 120.946 211.3 120.746 211.48C120.246 211.96 119.886 212.1 119.246 212.1ZM130.72 212.1H127.26C126.38 212.1 125.76 211.54 125.2 210.88C124.94 210.58 124.62 210.1 124.48 209.8L126.1 209.38C126.46 209.92 127.02 210.54 127.32 210.54H130.68C130.84 210.54 131.04 210.38 131.4 210.02C131.76 209.68 131.92 209.46 131.92 209.3V208.06C131.92 207.76 131.78 207.52 131.48 207.44L126.16 205.94C125.26 205.7 124.74 204.82 124.74 203.92V202.8C124.74 202.24 124.88 201.84 125.22 201.46C125.44 201.2 125.86 200.76 126.06 200.58C126.58 200.12 126.94 199.96 127.58 199.96H130.56C131.44 199.96 132.08 200.54 132.62 201.18C132.88 201.48 133.2 201.96 133.34 202.26L131.72 202.7C131.38 202.14 130.8 201.54 130.52 201.54H127.6C127.44 201.54 127.24 201.68 126.88 202.04C126.54 202.38 126.38 202.6 126.38 202.76V203.82C126.38 204.12 126.52 204.36 126.78 204.44L132.14 205.96C133.06 206.22 133.56 207.1 133.56 207.96V209.26C133.56 209.82 133.42 210.22 133.08 210.6C132.84 210.86 132.42 211.3 132.22 211.48C131.72 211.94 131.36 212.1 130.72 212.1ZM135.058 200.06H143.398V201.64H140.038V212H138.398V201.64H135.058V200.06ZM147.126 212H145.486V200.06H147.126V212ZM155.499 212.1H152.699C152.139 212.1 151.739 211.96 151.359 211.62C151.099 211.4 150.659 210.98 150.479 210.78C150.019 210.26 149.859 209.9 149.859 209.26V202.8C149.859 202.24 149.999 201.84 150.339 201.46C150.579 201.2 150.999 200.76 151.199 200.58C151.699 200.12 152.059 199.96 152.699 199.96H155.499C156.379 199.96 157.019 200.54 157.559 201.18C157.819 201.48 158.139 201.96 158.279 202.26L156.659 202.7C156.319 202.14 155.739 201.54 155.459 201.54H152.739C152.579 201.54 152.379 201.68 152.019 202.04C151.659 202.38 151.499 202.6 151.499 202.76V209.3C151.499 209.46 151.659 209.66 152.019 210.02C152.359 210.38 152.579 210.54 152.739 210.54H155.459C155.739 210.54 156.319 209.92 156.659 209.38L158.279 209.8C158.139 210.1 157.819 210.58 157.559 210.88C157.019 211.54 156.379 212.1 155.499 212.1Z" fill="#7B7575"/>
<path d="M52.96 370.1H50.16C49.6 370.1 49.2 369.96 48.82 369.62C48.56 369.4 48.12 368.98 47.94 368.78C47.48 368.26 47.32 367.9 47.32 367.26V360.8C47.32 360.24 47.46 359.84 47.8 359.46C48.04 359.2 48.46 358.76 48.66 358.58C49.16 358.12 49.52 357.96 50.16 357.96H52.96C53.84 357.96 54.48 358.54 55.02 359.18C55.28 359.48 55.6 359.96 55.74 360.26L54.12 360.7C53.78 360.14 53.2 359.54 52.92 359.54H50.2C50.04 359.54 49.84 359.68 49.48 360.04C49.12 360.38 48.96 360.6 48.96 360.76V367.3C48.96 367.46 49.12 367.66 49.48 368.02C49.82 368.38 50.04 368.54 50.2 368.54H52.92C53.2 368.54 53.78 367.92 54.12 367.38L55.74 367.8C55.6 368.1 55.28 368.58 55.02 368.88C54.48 369.54 53.84 370.1 52.96 370.1ZM64.6064 363.26V358.06H66.2464V370H64.6064V364.82H59.6264V370H57.9864V358.06H59.6264V363.26H64.6064ZM75.0402 363.96L70.9802 366.08C70.6802 366.24 70.5202 366.5 70.5202 366.76V368.44H76.2602V370H68.8802V366.66C68.8802 365.74 69.4602 365.1 70.2602 364.68L74.3602 362.54C74.6202 362.42 74.7602 362.18 74.7602 361.9V360.58C74.7602 360.36 74.6802 360.2 74.3802 359.9C74.1002 359.62 73.9402 359.54 73.7202 359.54H71.5602C71.2802 359.54 70.7002 360.14 70.3602 360.7L68.7402 360.26C68.9002 359.92 69.2002 359.48 69.4602 359.18C70.0602 358.48 70.6602 357.96 71.5202 357.96H73.8802C74.3002 357.96 74.7202 358.06 75.0602 358.32C75.3202 358.5 75.8802 359.04 76.0602 359.3C76.3002 359.66 76.4002 360.08 76.4002 360.5V361.94C76.4002 362.88 75.8002 363.58 75.0402 363.96ZM92.5914 370H90.8514L89.9914 367.36H84.9914L84.1114 370H82.3714L86.4314 358.06H88.5314L92.5914 370ZM87.4914 359.78L85.4914 365.8H89.4714L87.4914 359.78ZM99.6397 370.1H96.8397C96.2797 370.1 95.8797 369.96 95.4997 369.62C95.2397 369.4 94.7997 368.98 94.6197 368.78C94.1597 368.26 93.9997 367.9 93.9997 367.26V360.8C93.9997 360.24 94.1397 359.84 94.4797 359.46C94.7197 359.2 95.1397 358.76 95.3397 358.58C95.8397 358.12 96.1997 357.96 96.8397 357.96H99.6397C100.52 357.96 101.16 358.54 101.7 359.18C101.96 359.48 102.28 359.96 102.42 360.26L100.8 360.7C100.46 360.14 99.8797 359.54 99.5997 359.54H96.8797C96.7197 359.54 96.5197 359.68 96.1597 360.04C95.7997 360.38 95.6397 360.6 95.6397 360.76V367.3C95.6397 367.46 95.7997 367.66 96.1597 368.02C96.4997 368.38 96.7197 368.54 96.8797 368.54H99.5997C99.8797 368.54 100.46 367.92 100.8 367.38L102.42 367.8C102.28 368.1 101.96 368.58 101.7 368.88C101.16 369.54 100.52 370.1 99.6397 370.1ZM110.506 370.1H107.406C106.846 370.1 106.446 369.96 106.066 369.62C105.806 369.4 105.366 368.98 105.186 368.78C104.726 368.26 104.566 367.9 104.566 367.26V360.8C104.566 360.24 104.706 359.84 105.046 359.46C105.286 359.2 105.706 358.76 105.906 358.58C106.406 358.12 106.766 357.96 107.406 357.96H110.506C111.066 357.96 111.466 358.1 111.846 358.44C112.106 358.68 112.546 359.1 112.726 359.3C113.186 359.8 113.346 360.16 113.346 360.8V367.26C113.346 367.82 113.206 368.22 112.866 368.6C112.626 368.86 112.206 369.3 112.006 369.48C111.506 369.94 111.146 370.1 110.506 370.1ZM106.206 360.76V367.3C106.206 367.46 106.366 367.66 106.726 368.02C107.066 368.38 107.286 368.54 107.446 368.54H110.466C110.626 368.54 110.826 368.38 111.186 368.02C111.546 367.68 111.706 367.46 111.706 367.3V360.76C111.706 360.6 111.546 360.4 111.186 360.04C110.846 359.7 110.626 359.54 110.466 359.54H107.446C107.286 359.54 107.086 359.68 106.726 360.04C106.366 360.38 106.206 360.6 106.206 360.76ZM121.512 370.1H118.932C118.372 370.1 117.972 369.96 117.592 369.62C117.332 369.4 116.892 368.98 116.712 368.78C116.252 368.28 116.092 367.92 116.092 367.26V358.06H117.732V367.32C117.732 367.48 117.872 367.68 118.232 368.04C118.592 368.38 118.792 368.54 118.952 368.54H121.472C121.632 368.54 121.832 368.4 122.192 368.04C122.552 367.68 122.712 367.48 122.712 367.32V358.06H124.352V367.26C124.352 367.82 124.212 368.22 123.872 368.62C123.632 368.88 123.212 369.3 123.012 369.48C122.512 369.96 122.152 370.1 121.512 370.1ZM132.986 370.1H129.526C128.646 370.1 128.026 369.54 127.466 368.88C127.206 368.58 126.886 368.1 126.746 367.8L128.366 367.38C128.726 367.92 129.286 368.54 129.586 368.54H132.946C133.106 368.54 133.306 368.38 133.666 368.02C134.026 367.68 134.186 367.46 134.186 367.3V366.06C134.186 365.76 134.046 365.52 133.746 365.44L128.426 363.94C127.526 363.7 127.006 362.82 127.006 361.92V360.8C127.006 360.24 127.146 359.84 127.486 359.46C127.706 359.2 128.126 358.76 128.326 358.58C128.846 358.12 129.206 357.96 129.846 357.96H132.826C133.706 357.96 134.346 358.54 134.886 359.18C135.146 359.48 135.466 359.96 135.606 360.26L133.986 360.7C133.646 360.14 133.066 359.54 132.786 359.54H129.866C129.706 359.54 129.506 359.68 129.146 360.04C128.806 360.38 128.646 360.6 128.646 360.76V361.82C128.646 362.12 128.786 362.36 129.046 362.44L134.406 363.96C135.326 364.22 135.826 365.1 135.826 365.96V367.26C135.826 367.82 135.686 368.22 135.346 368.6C135.106 368.86 134.686 369.3 134.486 369.48C133.986 369.94 133.626 370.1 132.986 370.1ZM137.324 358.06H145.664V359.64H142.304V370H140.664V359.64H137.324V358.06ZM149.392 370H147.752V358.06H149.392V370ZM157.765 370.1H154.965C154.405 370.1 154.005 369.96 153.625 369.62C153.365 369.4 152.925 368.98 152.745 368.78C152.285 368.26 152.125 367.9 152.125 367.26V360.8C152.125 360.24 152.265 359.84 152.605 359.46C152.845 359.2 153.265 358.76 153.465 358.58C153.965 358.12 154.325 357.96 154.965 357.96H157.765C158.645 357.96 159.285 358.54 159.825 359.18C160.085 359.48 160.405 359.96 160.545 360.26L158.925 360.7C158.585 360.14 158.005 359.54 157.725 359.54H155.005C154.845 359.54 154.645 359.68 154.285 360.04C153.925 360.38 153.765 360.6 153.765 360.76V367.3C153.765 367.46 153.925 367.66 154.285 368.02C154.625 368.38 154.845 368.54 155.005 368.54H157.725C158.005 368.54 158.585 367.92 158.925 367.38L160.545 367.8C160.405 368.1 160.085 368.58 159.825 368.88C159.285 369.54 158.645 370.1 157.765 370.1Z" fill="#7B7575" fill-opacity="0.5"/>
</svg>
