<svg width="726" height="151" viewBox="0 0 726 151" fill="none" xmlns="http://www.w3.org/2000/svg">
<rect x="30.9746" y="30.9741" width="11.6154" height="11.6154" rx="5" fill="#C4C4C4"/>
<rect x="46.4619" y="30.9741" width="11.6154" height="11.6154" rx="5" fill="#ACACAC"/>
<rect x="61.9482" y="30.9741" width="11.6154" height="11.6154" rx="5" fill="#ACACAC"/>
<rect x="77.4355" y="30.9741" width="11.6154" height="11.6154" rx="5" fill="#ACACAC"/>
<rect x="108.41" y="30.9741" width="11.6154" height="11.6154" rx="5" fill="#ACACAC"/>
<rect x="92.9229" y="30.9741" width="11.6154" height="11.6154" rx="5" fill="#ACACAC"/>
<rect x="30.9746" y="46.4614" width="11.6154" height="11.6154" rx="5" fill="#828282"/>
<rect x="46.4619" y="46.4614" width="11.6154" height="11.6154" rx="5" fill="#ACACAC"/>
<rect x="92.9229" width="11.6154" height="11.6154" rx="5" fill="#ACACAC"/>
<rect x="92.9229" y="15.4873" width="11.6154" height="11.6154" rx="5" fill="#ACACAC"/>
<rect x="46.4619" y="123.897" width="11.6154" height="11.6154" rx="5" fill="#ACACAC"/>
<rect x="46.4619" y="139.385" width="11.6154" height="11.6154" rx="5" fill="#ACACAC"/>
<rect x="92.9229" y="123.897" width="11.6154" height="11.6154" rx="5" fill="#ACACAC"/>
<rect x="92.9229" y="139.385" width="11.6154" height="11.6154" rx="5" fill="#ACACAC"/>
<rect x="46.4619" width="11.6154" height="11.6154" rx="5" fill="#ACACAC"/>
<rect x="46.4619" y="15.4873" width="11.6154" height="11.6154" rx="5" fill="#ACACAC"/>
<rect x="61.9482" y="46.4614" width="11.6154" height="11.6154" rx="5" fill="#ACACAC"/>
<rect x="77.4355" y="46.4614" width="11.6154" height="11.6154" rx="5" fill="#ACACAC"/>
<rect x="108.41" y="46.4614" width="11.6154" height="11.6154" rx="5" fill="#ACACAC"/>
<rect x="92.9229" y="46.4614" width="11.6154" height="11.6154" rx="5" fill="#ACACAC"/>
<rect x="30.9746" y="61.9487" width="11.6154" height="11.6154" rx="5" fill="#828282"/>
<rect x="46.4619" y="61.9487" width="11.6154" height="11.6154" rx="5" fill="#ACACAC"/>
<rect x="61.9482" y="61.9487" width="11.6154" height="11.6154" rx="5" fill="#ACACAC"/>
<rect x="77.4355" y="61.9487" width="11.6154" height="11.6154" rx="5" fill="#ACACAC"/>
<rect x="108.41" y="61.9487" width="11.6154" height="11.6154" rx="5" fill="#ACACAC"/>
<rect x="92.9229" y="61.9487" width="11.6154" height="11.6154" rx="5" fill="#ACACAC"/>
<rect x="30.9746" y="77.436" width="11.6154" height="11.6154" rx="5" fill="#828282"/>
<rect x="46.4619" y="77.436" width="11.6154" height="11.6154" rx="5" fill="#ACACAC"/>
<rect x="61.9482" y="77.436" width="11.6154" height="11.6154" rx="5" fill="#ACACAC"/>
<rect x="77.4355" y="77.436" width="11.6154" height="11.6154" rx="5" fill="#ACACAC"/>
<rect x="108.41" y="77.436" width="11.6154" height="11.6154" rx="5" fill="#ACACAC"/>
<rect x="92.9229" y="77.436" width="11.6154" height="11.6154" rx="5" fill="#ACACAC"/>
<rect x="30.9746" y="92.9229" width="11.6154" height="11.6154" rx="5" fill="#828282"/>
<rect x="46.4619" y="92.9229" width="11.6154" height="11.6154" rx="5" fill="#ACACAC"/>
<rect y="92.9229" width="11.6154" height="11.6154" rx="5" fill="#ACACAC"/>
<rect x="15.4873" y="92.9229" width="11.6154" height="11.6154" rx="5" fill="#ACACAC"/>
<rect y="46.4614" width="11.6154" height="11.6154" rx="5" fill="#ACACAC"/>
<rect x="15.4873" y="46.4614" width="11.6154" height="11.6154" rx="5" fill="#ACACAC"/>
<rect x="123.897" y="46.4614" width="11.6154" height="11.6154" rx="5" fill="#ACACAC"/>
<rect x="139.385" y="46.4614" width="11.6154" height="11.6154" rx="5" fill="#ACACAC"/>
<rect x="123.897" y="92.9229" width="11.6154" height="11.6154" rx="5" fill="#ACACAC"/>
<rect x="139.385" y="92.9229" width="11.6154" height="11.6154" rx="5" fill="#ACACAC"/>
<rect x="61.9482" y="92.9229" width="11.6154" height="11.6154" rx="5" fill="#ACACAC"/>
<rect x="77.4355" y="92.9229" width="11.6154" height="11.6154" rx="5" fill="#ACACAC"/>
<rect x="108.41" y="92.9229" width="11.6154" height="11.6154" rx="5" fill="#ACACAC"/>
<rect x="92.9229" y="92.9229" width="11.6154" height="11.6154" rx="5" fill="#ACACAC"/>
<rect x="30.9746" y="108.41" width="11.6154" height="11.6154" rx="5" fill="#828282"/>
<rect x="30.9746" y="30.9741" width="11.6154" height="11.6154" rx="5" fill="#FF2400"/>
<rect x="46.4619" y="108.41" width="11.6154" height="11.6154" rx="5" fill="#828282"/>
<rect x="61.9482" y="108.41" width="11.6154" height="11.6154" rx="5" fill="#828282"/>
<rect x="77.4355" y="108.41" width="11.6154" height="11.6154" rx="5" fill="#828282"/>
<rect x="108.41" y="108.41" width="11.6154" height="11.6154" rx="5" fill="black"/>
<rect x="92.9229" y="108.41" width="11.6154" height="11.6154" rx="5" fill="#828282"/>
<path d="M217.917 29.677V110.807H260.436V123H205.099V29.677H217.917ZM344.214 123H330.614L323.892 102.366H284.812L277.934 123H264.334L296.067 29.677H312.481L344.214 123ZM304.352 43.1205L288.72 90.1728H319.828L304.352 43.1205ZM349.106 29.677H408.351V40.6194L364.738 110.807H408.351V123H349.106V112.37L392.563 42.0262H349.106V29.677ZM492.718 123H479.118L472.396 102.366H433.316L426.438 123H412.838L444.571 29.677H460.985L492.718 123ZM452.856 43.1205L437.224 90.1728H468.332L452.856 43.1205ZM566.547 123H552.166L533.564 83.92H511.835V123H499.017V29.677H543.256C546.538 29.677 549.665 30.4586 552.478 32.4907C554.511 33.8976 558.888 38.1182 560.294 40.1504C562.17 42.9642 562.952 46.2469 562.952 49.5296V64.0674C562.952 67.3501 562.17 70.6328 560.294 73.4466C558.888 75.4787 554.511 79.6994 552.478 81.1062C550.759 82.3568 549.039 82.9821 547.164 83.451L566.547 123ZM541.849 42.0262H511.835V71.5707H541.849C543.724 71.5707 544.975 70.9454 547.164 68.6006C549.508 66.4122 550.134 65.1616 550.134 63.4421V50.1549C550.134 48.4354 549.352 47.1848 547.164 44.84C544.975 42.6515 543.724 42.0262 541.849 42.0262ZM615.772 123.782H595.607C591.23 123.782 588.104 122.687 585.133 120.03C583.101 118.31 579.662 115.028 578.255 113.464C574.66 109.556 573.409 106.743 573.409 101.584V29.677H586.228V102.053C586.228 103.304 587.322 104.867 590.136 107.681C592.949 110.338 594.513 111.589 595.763 111.589H615.46C616.71 111.589 618.273 110.494 621.087 107.681C623.901 104.867 625.151 103.304 625.151 102.053V29.677H637.97V101.584C637.97 105.961 636.875 109.088 634.218 112.214C632.342 114.246 629.059 117.529 627.496 118.936C623.588 122.687 620.774 123.782 615.772 123.782ZM694.509 123.782H667.465C660.587 123.782 655.741 119.405 651.364 114.246C649.332 111.901 646.831 108.15 645.737 105.805L658.399 102.522C661.212 106.743 665.589 111.589 667.934 111.589H694.196C695.447 111.589 697.01 110.338 699.823 107.524C702.637 104.867 703.888 103.147 703.888 101.897V92.205C703.888 89.8602 702.794 87.9843 700.449 87.359L658.868 75.635C651.833 73.7592 647.769 66.8811 647.769 59.8467V51.0928C647.769 46.7158 648.863 43.5894 651.521 40.6194C653.24 38.5872 656.523 35.1482 658.086 33.7413C662.15 30.1459 664.964 28.8953 669.966 28.8953H693.258C700.136 28.8953 705.138 33.4286 709.359 38.4309C711.391 40.7757 713.892 44.5274 714.987 46.8722L702.325 50.3112C699.667 45.9342 695.134 41.2446 692.945 41.2446H670.123C668.872 41.2446 667.309 42.3389 664.495 45.1526C661.838 47.8101 660.587 49.5296 660.587 50.7802V59.0651C660.587 61.4099 661.681 63.2858 663.714 63.911L705.607 75.7914C712.798 77.8235 716.706 84.7016 716.706 91.4234V101.584C716.706 105.961 715.612 109.088 712.954 112.058C711.079 114.09 707.796 117.529 706.233 118.936C702.325 122.531 699.511 123.782 694.509 123.782Z" fill="#464646"/>
</svg>
